<?xml version="1.0" standalone="no"?>
<!DOCTYPE svg PUBLIC "-//W3C//DTD SVG 20010904//EN"
 "http://www.w3.org/TR/2001/REC-SVG-20010904/DTD/svg10.dtd">
<svg version="1.0" xmlns="http://www.w3.org/2000/svg"
 width="164.000000pt" height="144.000000pt" viewBox="0 0 164.000000 144.000000"
 preserveAspectRatio="xMidYMid meet">

<g transform="translate(0.000000,144.000000) scale(0.100000,-0.100000)"
fill="#000000" stroke="none">
<path d="M490 1410 c0 -5 -7 -10 -16 -10 -8 0 -12 -4 -9 -10 3 -5 1 -10 -5
-10 -7 0 -9 -7 -6 -16 4 -10 2 -13 -6 -8 -8 5 -9 -2 -4 -26 7 -36 34 -69 52
-63 11 4 21 -223 16 -360 -2 -44 1 -57 10 -52 7 4 4 0 -6 -9 -17 -13 -17 -18
-5 -33 12 -16 12 -17 -2 -6 -13 11 -20 9 -37 -10 -12 -13 -19 -27 -15 -32 5
-4 3 -5 -3 -2 -13 7 -176 -157 -166 -168 4 -5 2 -5 -5 -2 -13 8 -56 -41 -47
-54 3 -5 -1 -6 -8 -4 -8 3 -32 -14 -55 -40 -42 -44 -54 -45 -60 -3 -2 10 -4
21 -5 25 -3 14 13 73 21 73 4 0 18 9 31 20 21 18 20 25 -4 21 -5 -1 -4 4 3 13
8 10 9 16 1 21 -14 9 -32 -4 -24 -18 5 -9 4 -9 -6 0 -9 8 -14 56 -17 160 -2
81 -5 167 -6 191 l-3 42 136 0 135 0 -3 -72 c-2 -45 -9 -79 -18 -89 -8 -9 -11
-19 -7 -22 3 -4 1 -7 -6 -7 -7 0 -9 -5 -5 -12 5 -7 3 -8 -5 -3 -7 4 -22 -2
-37 -16 -18 -17 -21 -25 -12 -31 9 -5 6 -8 -8 -8 -24 0 -68 -43 -57 -55 5 -4
3 -5 -3 -2 -14 8 -58 -38 -49 -52 3 -6 12 -8 18 -4 7 4 6 0 -2 -10 -7 -9 -9
-17 -3 -17 15 0 35 28 28 39 -4 5 1 9 11 8 11 -2 39 20 69 50 28 29 50 53 48
53 -2 0 17 19 41 41 l45 42 0 133 0 133 -189 0 -189 1 -16 -25 c-14 -21 -16
-83 -16 -536 0 -516 3 -558 36 -545 9 3 12 1 9 -4 -4 -7 258 -10 761 -10 l767
0 18 22 c18 20 19 48 19 538 0 478 -1 519 -17 539 -18 21 -19 21 -488 19
l-470 -3 -2 -60 c-1 -33 -2 -114 -2 -180 l-1 -121 -85 -84 c-47 -47 -83 -90
-81 -97 3 -7 0 -10 -7 -7 -7 2 -84 -68 -171 -156 -88 -88 -165 -160 -172 -160
-6 0 -10 11 -9 24 2 13 -1 29 -5 36 -12 20 11 50 135 174 60 61 109 113 108
116 -1 3 11 14 27 25 16 11 34 29 41 41 6 12 21 25 32 28 13 3 18 10 13 21 -3
9 -2 14 3 11 5 -3 12 1 15 10 3 8 10 13 15 10 5 -4 19 6 31 21 20 26 21 36 19
242 l-1 215 25 21 c49 40 55 92 16 134 -21 22 -99 31 -99 11z m75 -63 c0 -15
-5 -31 -11 -35 -6 -4 -16 -16 -23 -27 -11 -17 -12 -17 -7 -2 4 13 0 20 -12 24
-23 6 -27 49 -5 61 9 6 26 9 38 8 16 -1 21 -7 20 -29z m132 -249 c-3 -8 -6 -5
-6 6 -1 11 2 17 5 13 3 -3 4 -12 1 -19z m821 -471 l3 -407 -351 0 c-236 0
-358 -4 -372 -11 -15 -8 -19 -8 -14 0 4 7 -1 11 -13 11 -12 0 -21 4 -21 8 0 5
32 40 70 78 39 38 68 75 65 81 -2 7 -1 12 3 12 20 -3 23 3 11 19 -12 15 -12
16 1 6 9 -7 70 -12 163 -13 120 0 153 3 173 15 13 9 21 21 17 27 -3 5 -1 7 4
4 6 -4 16 0 23 8 16 19 25 19 44 -1 25 -24 20 -53 -10 -60 -17 -5 -22 -10 -15
-17 7 -7 16 -6 28 4 16 13 17 12 5 -2 -20 -26 12 -33 34 -8 26 29 23 83 -5
113 -20 22 -31 25 -69 21 -24 -2 -45 -5 -46 -7 -1 -2 -10 -13 -21 -26 -13 -16
-15 -22 -4 -19 8 2 11 2 7 0 -5 -3 -8 -11 -8 -18 0 -8 -4 -16 -9 -19 -5 -4 -7
3 -4 14 5 19 0 20 -149 20 l-154 0 -62 -64 c-43 -44 -60 -69 -56 -80 3 -9 1
-16 -6 -16 -6 0 -8 5 -5 10 3 6 2 10 -3 10 -13 0 -53 -45 -47 -53 3 -4 2 -5
-2 -2 -8 6 -33 -14 -33 -27 0 -6 8 -4 18 3 15 13 16 12 4 -3 -8 -10 -20 -14
-29 -11 -10 4 -14 2 -10 -3 3 -6 -5 -9 -21 -6 -23 3 -30 -2 -40 -25 -9 -21
-11 -23 -8 -5 3 17 -2 24 -20 28 -28 7 -30 16 -9 34 9 7 14 19 11 27 -3 8 -1
11 4 8 14 -9 73 52 64 66 -4 7 -3 9 4 5 14 -8 114 93 105 107 -3 6 -2 7 4 4
11 -7 77 56 68 64 -7 8 5 9 127 17 l108 7 92 92 c84 83 97 92 133 94 63 4 112
61 83 97 -11 13 -11 14 0 8 21 -13 -1 25 -27 47 -54 44 -144 -7 -134 -77 4
-30 -2 -40 -71 -111 -42 -43 -76 -82 -76 -87 0 -5 -4 -6 -10 -3 -5 3 -10 1
-10 -4 0 -7 -36 -11 -101 -11 l-100 0 -35 -36 c-31 -34 -36 -54 -13 -54 6 0 7
5 3 12 -5 7 -3 8 5 3 9 -5 10 -10 2 -18 -7 -7 -15 -6 -26 3 -8 7 -17 11 -18 9
-1 -2 -11 -15 -22 -28 -11 -14 -14 -21 -6 -16 10 5 12 4 7 -4 -4 -6 -11 -9
-16 -6 -4 3 -19 -7 -32 -22 -13 -16 -41 -43 -63 -62 -22 -19 -50 -48 -62 -65
-13 -16 -23 -27 -23 -24 0 3 -18 -11 -40 -32 -41 -38 -94 -57 -130 -45 -18 6
-18 8 -5 29 8 12 12 26 8 30 -5 4 -3 6 3 4 11 -3 74 52 74 66 0 5 -6 3 -13 -3
-10 -8 -14 -7 -14 3 0 9 8 13 21 10 16 -3 43 18 104 79 45 46 79 87 75 92 -5
4 -3 5 3 2 6 -3 59 43 117 102 97 98 127 135 95 115 -7 -5 -8 -3 -3 5 5 9 10
10 18 2 18 -18 82 -13 111 10 28 22 33 47 14 68 -10 11 -10 13 0 7 7 -4 12 -1
12 8 0 9 -5 16 -11 16 -5 0 -7 5 -4 11 4 6 -2 13 -14 16 -12 3 -21 9 -21 14 0
12 -57 11 -81 -1 -27 -15 -52 -67 -37 -76 7 -4 8 -3 4 5 -4 6 -4 11 1 10 4 -1
11 0 16 1 12 4 26 7 38 9 5 0 8 5 4 10 -3 6 6 6 24 1 16 -4 32 -6 34 -4 3 3 2
-10 -2 -28 -5 -26 -12 -34 -33 -36 -17 -2 -34 4 -46 16 -22 22 -42 13 -42 -18
0 -9 -20 -36 -45 -60 -24 -24 -41 -48 -38 -54 3 -6 2 -8 -2 -3 -11 10 -56 -33
-48 -46 3 -6 2 -7 -4 -4 -11 7 -106 -86 -98 -96 3 -4 2 -5 -1 -3 -10 8 -74
-56 -67 -67 3 -6 2 -7 -4 -4 -12 7 -117 -99 -110 -111 3 -4 1 -14 -5 -22 -8
-12 -9 -12 -4 2 8 27 -3 22 -40 -16 -23 -24 -32 -41 -28 -53 4 -13 3 -14 -3
-5 -8 10 -15 8 -35 -8 -15 -11 -33 -20 -42 -20 -9 0 -16 -3 -16 -7 0 -5 -13
-8 -29 -8 -16 0 -27 3 -25 7 2 3 0 8 -5 10 -14 5 -18 32 -4 33 19 0 233 217
226 229 -3 6 -2 8 2 3 11 -9 56 33 49 45 -3 5 0 7 8 6 7 -2 12 4 10 12 -2 8 0
12 4 7 8 -8 185 163 178 174 -2 4 5 9 15 12 17 4 19 16 20 142 1 76 4 142 7
147 3 4 188 7 412 6 l407 -3 3 -408z m-1427 370 c-10 -9 -11 -8 -5 6 3 10 9
15 12 12 3 -3 0 -11 -7 -18z m9 -37 c0 -11 -2 -20 -4 -20 -2 0 -6 9 -9 20 -3
11 -1 20 4 20 5 0 9 -9 9 -20z m570 16 c0 -3 -4 -8 -10 -11 -5 -3 -10 -1 -10
4 0 6 5 11 10 11 6 0 10 -2 10 -4z m-573 -98 c-3 -8 -6 -5 -6 6 -1 11 2 17 5
13 3 -3 4 -12 1 -19z m1228 10 c4 -3 2 -9 -3 -12 -5 -3 -15 1 -21 8 -10 11 -9
14 3 12 9 -1 18 -5 21 -8z m2 -40 c14 -18 24 -48 15 -46 -4 1 -16 -3 -27 -9
-15 -8 -24 -8 -35 0 -14 11 -16 19 -12 55 1 6 13 12 26 12 13 0 28 -6 33 -12z
m-80 -13 c0 -8 -4 -12 -9 -9 -5 3 -6 10 -3 15 9 13 12 11 12 -6z m-957 -69 c0
-2 -8 -10 -17 -17 -16 -13 -17 -12 -4 4 13 16 21 21 21 13z m337 -41 c0 -8 -4
-12 -9 -9 -5 3 -6 10 -3 15 9 13 12 11 12 -6z m-212 -25 c3 -6 -1 -7 -9 -4
-18 7 -21 14 -7 14 6 0 13 -4 16 -10z m377 -3 c-12 -7 -19 -17 -15 -22 4 -4 2
-5 -6 0 -12 7 -11 10 4 22 11 7 24 13 29 13 6 -1 1 -6 -12 -13z m-699 -12 c-3
-9 -8 -14 -10 -11 -3 3 -2 9 2 15 9 16 15 13 8 -4z m463 -37 c4 -7 3 -8 -4 -4
-7 4 -12 2 -12 -5 0 -7 -3 -9 -7 -6 -3 4 -11 3 -18 -1 -6 -4 -2 1 8 11 23 20
24 20 33 5z m-450 -23 c-3 -8 -1 -15 3 -15 5 0 12 6 14 13 4 9 6 9 6 0 1 -16
-14 -24 -33 -17 -12 5 -13 9 -3 20 16 18 20 17 13 -1z m231 0 c0 -8 -4 -12 -9
-9 -5 3 -6 10 -3 15 9 13 12 11 12 -6z m776 -2 c-3 -7 -6 -13 -8 -13 -2 0 -5
6 -8 13 -3 8 1 14 8 14 7 0 11 -6 8 -14z m-242 -48 c0 -6 -10 -11 -21 -11 -16
-1 -18 1 -9 13 13 15 31 14 30 -2z m-226 -33 c-3 -3 -11 0 -18 7 -9 10 -8 11
6 5 10 -3 15 -9 12 -12z m-550 -16 c0 -13 -3 -22 -7 -19 -5 2 -8 13 -8 24 0
10 3 19 8 19 4 0 7 -11 7 -24z m278 -41 c-3 -9 -8 -14 -10 -11 -3 3 -2 9 2 15
9 16 15 13 8 -4z m-20 -48 c7 3 8 2 4 -2 -14 -16 -36 -14 -29 3 4 10 7 12 10
4 2 -7 9 -9 15 -5z m192 3 c-3 -5 -12 -10 -18 -10 -7 0 -6 4 3 10 19 12 23 12
15 0z m379 -6 c5 -14 4 -15 -9 -4 -17 14 -19 20 -6 20 5 0 12 -7 15 -16z
m-809 -34 c-1 -11 -4 -22 -7 -25 -4 -5 -4 34 1 43 4 8 7 -1 6 -18z m755 -4 c0
-2 -8 -10 -17 -17 -16 -13 -17 -12 -4 4 13 16 21 21 21 13z m-240 -52 c0 -8
-19 -13 -24 -6 -3 5 1 9 9 9 8 0 15 -2 15 -3z m-306 -142 c3 -5 -1 -9 -9 -9
-8 0 -12 4 -9 9 3 4 7 8 9 8 2 0 6 -4 9 -8z m-26 -25 c10 4 14 2 9 -3 -5 -5
-19 -9 -31 -9 -18 -1 -22 3 -18 18 4 17 6 17 14 4 5 -10 15 -14 26 -10z m142
8 c3 0 14 -6 25 -13 19 -12 18 -13 -5 -6 -14 3 -32 13 -40 21 -13 14 -13 15 0
7 8 -5 17 -9 20 -9z m242 -11 c15 3 18 2 10 -6 -15 -15 -42 -2 -41 19 1 17 2
17 6 0 3 -13 11 -17 25 -13z m-449 3 c6 -15 -48 -23 -57 -9 -3 5 6 7 21 4 18
-3 24 -1 19 7 -4 6 -3 11 2 11 6 0 12 -6 15 -13z m538 -3 c12 -14 -2 -13 -41
4 l-25 11 28 -2 c16 -1 33 -7 38 -13z m696 -6 c-3 -8 -6 -5 -6 6 -1 11 2 17 5
13 3 -3 4 -12 1 -19z m20 0 c-3 -8 -6 -5 -6 6 -1 11 2 17 5 13 3 -3 4 -12 1
-19z m-1147 2 c0 -5 -2 -10 -4 -10 -3 0 -8 5 -11 10 -3 6 -1 10 4 10 6 0 11
-4 11 -10z m-284 -112 c3 -4 -1 -5 -10 -4 -8 1 -18 5 -22 8 -3 4 1 5 10 4 8
-1 18 -5 22 -8z m1485 -21 c-10 -9 -11 -8 -5 6 3 10 9 15 12 12 3 -3 0 -11 -7
-18z"/>
<path d="M866 827 c3 -10 9 -15 12 -12 3 3 0 11 -7 18 -10 9 -11 8 -5 -6z"/>
<path d="M1236 417 c-11 -8 -15 -19 -10 -30 5 -14 9 -15 20 -6 12 10 13 9 8
-4 -4 -12 2 -18 19 -22 49 -13 54 -1 16 37 -31 32 -39 36 -53 25z"/>
<path d="M1486 1354 c-8 -20 -8 -59 0 -52 6 7 15 68 10 68 -2 0 -7 -7 -10 -16z"/>
<path d="M1510 1359 c0 -5 5 -7 10 -4 6 3 10 8 10 11 0 2 -4 4 -10 4 -5 0 -10
-5 -10 -11z"/>
<path d="M687 1353 c-9 -9 -9 -41 1 -47 4 -2 8 9 8 25 2 31 1 33 -9 22z"/>
<path d="M880 1350 c0 -6 4 -9 9 -6 5 4 12 1 14 -4 3 -6 4 -5 3 2 -3 15 -26
23 -26 8z"/>
<path d="M1006 1351 c-3 -5 1 -11 9 -15 8 -3 15 -1 15 4 0 13 -18 22 -24 11z"/>
<path d="M1366 1352 c-3 -5 1 -9 9 -9 8 0 12 4 9 9 -3 4 -7 8 -9 8 -2 0 -6 -4
-9 -8z"/>
<path d="M1277 1335 c-4 -8 -2 -17 3 -20 6 -4 10 3 10 14 0 25 -6 27 -13 6z"/>
<path d="M1046 1307 c3 -10 9 -15 12 -12 3 3 0 11 -7 18 -10 9 -11 8 -5 -6z"/>
<path d="M711 1297 c15 -13 69 -34 69 -27 0 4 -14 13 -31 19 -32 11 -46 14
-38 8z"/>
<path d="M843 1259 c-12 -30 -11 -32 3 -17 9 8 14 23 12 33 -2 12 -7 7 -15
-16z"/>
<path d="M924 1281 c4 -7 -2 -15 -16 -20 -22 -10 -22 -10 5 -8 27 1 36 20 15
33 -7 4 -8 3 -4 -5z"/>
<path d="M1400 1280 c0 -5 5 -10 11 -10 5 0 7 5 4 10 -3 6 -8 10 -11 10 -2 0
-4 -4 -4 -10z"/>
<path d="M1322 1252 c-14 -31 -12 -34 9 -12 9 10 14 22 10 28 -3 6 -12 -1 -19
-16z"/>
<path d="M1591 1256 c-9 -11 -9 -16 1 -22 7 -4 10 -4 6 1 -4 4 -3 14 3 22 6 7
9 13 6 13 -2 0 -10 -6 -16 -14z"/>
<path d="M680 1231 c0 -5 5 -13 10 -16 6 -3 10 -2 10 4 0 5 -4 13 -10 16 -5 3
-10 2 -10 -4z"/>
<path d="M1105 1230 c-3 -5 -1 -10 4 -10 6 0 11 5 11 10 0 6 -2 10 -4 10 -3 0
-8 -4 -11 -10z"/>
<path d="M1523 1213 c9 -2 25 -2 35 0 9 3 1 5 -18 5 -19 0 -27 -2 -17 -5z"/>
</g>
</svg>
